<?xml version="1.0" encoding="UTF-8" standalone="no"?>
<!-- Created with Inkscape (http://www.inkscape.org/) -->

<svg
   xmlns:dc="http://purl.org/dc/elements/1.1/"
   xmlns:cc="http://creativecommons.org/ns#"
   xmlns:rdf="http://www.w3.org/1999/02/22-rdf-syntax-ns#"
   xmlns:svg="http://www.w3.org/2000/svg"
   xmlns="http://www.w3.org/2000/svg"
   xmlns:xlink="http://www.w3.org/1999/xlink"
   xmlns:sodipodi="http://sodipodi.sourceforge.net/DTD/sodipodi-0.dtd"
   xmlns:inkscape="http://www.inkscape.org/namespaces/inkscape"
   width="300"
   height="20"
   viewBox="0 0 79.374998 5.2916668"
   version="1.1"
   id="svg8"
   inkscape:version="0.92.3 (2405546, 2018-03-11)"
   sodipodi:docname="profex-header.svg">
  <defs
     id="defs2">
    <linearGradient
       inkscape:collect="always"
       id="linearGradient1413">
      <stop
         style="stop-color:#d1e9f8;stop-opacity:1"
         offset="0"
         id="stop1409" />
      <stop
         id="stop1417"
         offset="0.5"
         style="stop-color:#7ec3eb;stop-opacity:1" />
      <stop
         style="stop-color:#d1e9f8;stop-opacity:1"
         offset="1"
         id="stop1411" />
    </linearGradient>
    <clipPath
       id="outer">
      <circle
         id="circle928"
         r="200"
         cy="0"
         cx="0" />
    </clipPath>
    <linearGradient
       inkscape:collect="always"
       xlink:href="#linearGradient1413"
       id="linearGradient1415"
       x1="37.269363"
       y1="291.20026"
       x2="75.434685"
       y2="291.20026"
       gradientUnits="userSpaceOnUse"
       gradientTransform="matrix(0.67573813,0,0,0.62303361,15.746243,112.32261)" />
  </defs>
  <sodipodi:namedview
     id="base"
     pagecolor="#ffffff"
     bordercolor="#666666"
     borderopacity="1.0"
     inkscape:pageopacity="0.0"
     inkscape:pageshadow="2"
     inkscape:zoom="3.959798"
     inkscape:cx="164.25985"
     inkscape:cy="1.1933701"
     inkscape:document-units="mm"
     inkscape:current-layer="layer1"
     showgrid="false"
     inkscape:window-width="1920"
     inkscape:window-height="1135"
     inkscape:window-x="0"
     inkscape:window-y="0"
     inkscape:window-maximized="1"
     units="px" />
  <metadata
     id="metadata5">
    <rdf:RDF>
      <cc:Work
         rdf:about="">
        <dc:format>image/svg+xml</dc:format>
        <dc:type
           rdf:resource="http://purl.org/dc/dcmitype/StillImage" />
        <dc:title />
      </cc:Work>
    </rdf:RDF>
  </metadata>
  <g
     inkscape:label="Layer 1"
     inkscape:groupmode="layer"
     id="layer1"
     transform="translate(0,-291.70834)">
    <path
       style="fill:#7ec3eb;fill-opacity:1;stroke:none;stroke-width:0.26458335px;stroke-linecap:butt;stroke-linejoin:miter;stroke-opacity:1"
       d="m 0.12204799,291.97023 c 0,0 7.62799951,2.99301 14.95087801,3.05983 7.32288,0.0668 18.002078,-3.0736 18.002078,-3.0736 z"
       id="path1419"
       inkscape:connector-curvature="0" />
    <path
       style="fill:#d1e9f8;fill-opacity:1;stroke:none;stroke-width:0.26458335px;stroke-linecap:butt;stroke-linejoin:miter;stroke-opacity:1"
       d="m 0,291.70834 v 1.99404 c 3.5211484,-0.61007 9.814071,-1.44226 18.295054,-1.44226 15.036064,0 24.470605,4.77555 40.272846,4.73968 8.349534,-0.0189 15.543283,-4.38045 20.657372,-5.29146 v 0 z"
       id="path1325"
       inkscape:connector-curvature="0"
       sodipodi:nodetypes="ccssccc" />
    <path
       style="fill:#7ec3eb;fill-opacity:1;stroke:none;stroke-width:0.26458335px;stroke-linecap:butt;stroke-linejoin:miter;stroke-opacity:1"
       d="m 0,291.70834 v 1.87946 c 2.2321794,-0.48714 6.621892,-1.58146 14.145528,-1.87946 z m 20.938475,0 c 12.006462,0.62154 23.09504,4.8008 37.136848,4.86176 8.899022,0.0387 14.290069,-3.768 21.149949,-4.86176 z"
       id="path1325-3"
       inkscape:connector-curvature="0"
       sodipodi:nodetypes="cccccscc" />
    <path
       style="fill:#d1e9f8;fill-opacity:1;stroke:none;stroke-width:0.26458335px;stroke-linecap:butt;stroke-linejoin:miter;stroke-opacity:1"
       d="m 0,291.70834 v 1.8689 c 1.8748525,-0.54211 4.5122449,-1.30373 7.9596641,-1.8689 z m 26.360456,0 c 9.274689,1.32423 18.371828,4.30139 29.767113,4.30139 9.218066,0 13.617866,-2.74898 23.097703,-4.30139 z"
       id="path1325-5"
       inkscape:connector-curvature="0"
       sodipodi:nodetypes="cccccscc" />
    <text
       xml:space="preserve"
       style="font-style:oblique;font-variant:normal;font-weight:normal;font-stretch:normal;font-size:3.65656519px;line-height:1.25;font-family:'DejaVu Sans';-inkscape-font-specification:'DejaVu Sans, Oblique';font-variant-ligatures:normal;font-variant-caps:normal;font-variant-numeric:normal;font-feature-settings:normal;text-align:start;letter-spacing:0px;word-spacing:0px;writing-mode:lr-tb;text-anchor:start;fill:#7a7a72;fill-opacity:1;stroke:none;stroke-width:0.12403181;stroke-opacity:1"
       x="5.5341711"
       y="365.20227"
       id="text817"
       transform="scale(1.2349691,0.80973686)"><tspan
         sodipodi:role="line"
         id="tspan815"
         x="5.5341711"
         y="365.20227"
         style="font-style:oblique;font-variant:normal;font-weight:normal;font-stretch:normal;font-size:3.65656519px;font-family:'DejaVu Sans';-inkscape-font-specification:'DejaVu Sans, Oblique';font-variant-ligatures:normal;font-variant-caps:normal;font-variant-numeric:normal;font-feature-settings:normal;text-align:start;writing-mode:lr-tb;text-anchor:start;fill:#7a7a72;fill-opacity:1;stroke:none;stroke-width:0.12403181;stroke-opacity:1">PROFEX</tspan></text>
    <path
       style="fill:none;stroke:url(#linearGradient1415);stroke-width:0.079375;stroke-miterlimit:4;stroke-dasharray:none"
       d="m 64.107754,294.4423 c 0.01289,0.0319 0.04443,-0.0349 0.08105,0.01 0.02125,-0.014 0.0448,0.008 0.06759,-0.006 0.02614,0.006 0.05073,0.002 0.08103,-0.0159 0.02982,-0.0535 0.0248,-0.1212 0.04056,-0.1809 0.0229,0.0382 -0.0077,0.12295 0.04504,0.13391 0.03937,-0.0848 0.01969,-0.17036 0.04954,-0.25532 0.01568,0.0816 0.0019,0.18508 0.04053,0.25355 0.03549,0.002 0.01525,-0.13715 0.04506,-0.0847 0.01173,0.0417 -0.0018,0.11821 0.05406,0.14022 -0.01484,0.003 0.10031,0.0194 0.0676,0.0102 -0.0011,-10e-4 0.0617,-0.004 0.07626,-0.0125 0.03208,-0.026 0.02422,-0.11194 0.04539,-0.11141 -0.0012,0.0627 0.03963,0.1066 0.04265,0.0179 0.01097,-0.0465 0.03573,0.0282 0.05189,0.0586 0.0229,0.0349 0.04671,-0.0718 0.0631,0.0216 0.08719,-0.0436 0.06087,-0.141 0.07491,-0.2112 5.2e-5,-0.0486 0.01721,-0.1471 0.02104,-0.0426 0.01583,0.07 -0.0094,0.1506 0.03904,0.21431 0.02267,-0.0355 0.02047,-0.14525 0.03794,-0.13784 0.0141,0.0564 7.4e-4,0.13404 0.05215,0.17406 0.01512,-10e-4 0.04643,-0.0661 0.04166,-0.10579 -0.0011,-0.0762 0.02746,-0.0905 0.02741,-0.004 4.9e-4,0.0221 0.01174,0.12916 0.04356,0.0839 0.01198,-0.0574 0.03313,-0.10014 0.04385,-0.0153 0.02676,0.049 0.03242,-0.0623 0.04074,-0.0916 0.01684,-0.0279 0.01905,0.0865 0.03708,0.11661 0.04521,0.004 0.04991,-0.11607 0.06752,-0.0217 0.04226,0.0406 0.06808,-0.0636 0.06245,-0.0846 0.0093,-0.0702 0.0104,-0.14044 0.02312,-0.21061 0.01667,0.0754 0.0018,0.15118 0.0315,0.22642 0.02895,-0.0735 0.01136,-0.14727 0.03604,-0.22072 0.02416,0.0872 0.0212,0.1863 0.04957,0.26609 0.02161,-0.0147 0.02451,-0.16464 0.03773,-0.0661 0.01773,0.0442 -0.01108,0.13427 0.07936,0.14137 0.04583,-0.0143 0.06573,0.0283 0.08077,-0.0125 0.01911,0.0386 0.03498,-0.11004 0.04954,-0.0492 0.02878,0.0707 0.04845,-0.0379 0.04984,-0.06 0.0094,-0.0847 0.01136,-0.16936 0.0225,-0.25401 0.03011,0.10407 -0.0019,0.21906 0.04955,0.31691 0.0346,-0.0575 0.01851,-0.11655 0.03604,-0.17463 0.02738,0.0711 -0.0016,0.16946 0.05856,0.22503 0.04213,0.0199 0.02779,-0.002 0.08111,0.0188 0.02785,-0.0153 0.04461,0.01 0.07659,-4.3e-4 0.02141,0.0158 0.04315,10e-4 0.08537,0.0149 0.06228,-0.005 0.04129,0.007 0.06759,-0.009 0.02714,0.008 0.05424,0.0174 0.07189,-0.008 0.02242,0.0364 0.04493,-0.0115 0.05869,0.0216 0.0083,-0.0185 0.124571,-0.009 0.08111,-0.006 l 0.0045,0.008 0.0045,-0.009 m -5.152302,0.004 c 0.0179,-0.0336 0.06393,10e-4 0.08106,-0.0179 0.05439,-0.0364 0.03236,-0.11587 0.04954,-0.16885 0.01376,-0.086 0.02321,0.0547 0.02666,0.0806 0.0071,0.0882 0.04026,0.029 0.04539,-0.0256 0.02902,-0.004 4.91e-4,0.0867 0.04952,0.10756 0.02991,-0.006 0.0563,0.0354 0.06759,0.0171 0.02195,-0.007 0.08569,0.0251 0.08058,0.004 0.0041,0.0103 0.04298,0.008 0.07706,-2.2e-4 0.04977,0.0153 0.03634,-0.0111 0.08559,0.004 0.01524,-0.0224 0.08071,-0.008 0.06759,3.3e-4 0.0244,-0.007 0.03784,-0.009 0.08106,-0.0206 0.01086,0.04 0.06459,-0.007 0.0856,0.0184 0.04415,-0.002 0.04728,0.005 0.08105,-0.0321 0.02712,-0.0476 0.02741,0.0612 0.07113,0.0121 0.04775,0.0166 0.03272,0.01 0.05949,0.0283 0.01315,-0.0133 0.01936,0.004 0.07205,-0.011 0.0267,-0.0489 0.0506,0.0237 0.0766,-0.0178 0.01477,0.0108 0.0567,0.028 0.07205,0.0125 0.05036,0.0281 0.05497,-0.0262 0.07657,-0.001 0.03405,-0.0639 0.02466,-0.12822 0.04505,-0.19224 0.02336,0.05 -0.01063,0.12642 0.04505,0.16229 0.01575,-0.0664 0.03176,-0.10302 0.04418,-0.0133 0.01713,0.0538 0.04613,0.046 0.05493,0.0191 0.01801,-0.0513 0.01262,0.0633 0.06305,0.0302 0.01108,-0.046 0.04737,0.0221 0.0766,0.008 0.02705,-0.002 0.111131,-0.006 0.06753,-0.004 0.04091,-0.001 0.08924,-0.0179 0.07659,-0.0213 0.01983,0.0397 0.03729,-0.0112 0.06759,0.009 0.03729,-0.0143 0.02637,0.0143 0.07654,-0.003 0.03399,-0.0624 0.02924,0.0105 0.06759,-0.01 0.01908,-0.006 0.04677,-0.067 0.04949,-0.11034 0.0093,-0.0584 0.0058,-0.1177 0.02259,-0.17553 0.01779,0.0701 -0.0044,0.18609 0.0496,0.2301 0.0087,-0.0231 0.01659,-0.16306 0.03263,-0.0861 0.0092,0.049 0.0059,0.0987 0.03493,0.12438 0.03219,0.0346 0.0587,0.0198 0.07661,0.004 0.03315,-0.0676 0.01662,-0.13665 0.04056,-0.20472 0.01782,0.0563 0.0016,0.12877 0.03604,0.17479 0.03946,-0.0271 0.03158,-0.14099 0.04953,-0.0542 -0.0034,0.0465 0.07232,0.10281 0.04955,0.10083 0.01848,0.004 0.05243,0.0262 0.08105,0.004 0.01714,0.008 0.04089,-0.0652 0.05405,-0.006 l 0.0042,0.01 m -5.143293,0.004 c -0.01847,0.0206 0.0627,10e-4 0.06753,0.0141 0.01481,-0.008 0.107784,-0.009 0.08112,-0.004 0.01676,-0.008 0.057,0.009 0.08523,-0.0188 0.038,0.0107 0.05733,-0.0225 0.07031,-0.0485 0.02917,-0.0879 0.0166,-0.17625 0.03814,-0.26416 0.01844,0.0751 -0.0028,0.15101 0.0315,0.22569 0.02168,-0.026 0.01844,-0.15792 0.03604,-0.0731 0.005,0.0455 0.0034,0.13334 0.05856,0.1461 0.0512,-0.0753 0.02215,-0.15178 0.04952,-0.2275 0.01559,0.0661 -0.0027,0.15038 0.03603,0.20521 0.0032,-0.0425 0.0277,-0.15088 0.0345,-0.0503 0.0035,0.0408 0.09688,0.0936 0.05564,0.0888 0.01197,0.002 0.05077,0.008 0.07207,-0.001 0.02502,0.0186 0.02955,0.0198 0.07659,0.004 0.02436,-0.006 0.0611,-0.0123 0.08559,-0.0299 0.01492,0.0162 0.04082,-0.0288 0.04616,-0.0712 0.01006,-0.0564 0.0079,-0.11278 0.02141,-0.16911 0.01695,0.11235 0.04624,-0.0252 0.03288,-0.0323 0.0074,0.0331 0.0093,0.17815 0.02116,0.12172 0.02924,0.0756 0.03478,-0.0476 0.04677,0.0303 0.0019,0.046 0.0051,0.13159 0.06582,0.14218 0.01413,0.002 0.05787,0.015 0.08042,-0.001 0.04225,0.003 0.115058,0.007 0.08172,0.008 0.0045,-0.008 0.05327,0.0175 0.07661,-0.0127 0.0249,10e-4 0.07671,-0.0236 0.06757,-0.0486 0.03814,-0.13236 0.02015,-0.26504 0.04057,-0.39749 0.02103,0.11847 0.0011,0.23723 0.03605,0.35557 0.01953,-0.065 0.01615,-0.13011 0.02704,-0.19515 0.02739,0.0907 -0.0034,0.18205 0.04957,0.27237 0.0387,-0.006 0.03299,-0.0832 0.04952,-0.12464 0.01468,0.0252 0.0034,0.14374 0.04711,0.10988 0.01787,-0.0745 0.01315,-0.019 0.05647,0.0124 0.05251,-0.0344 0.05887,-0.071 0.06975,-0.12288 0.01444,-0.0976 0.01236,-0.19518 0.02485,-0.29273 0.01921,0.10124 0.0011,0.20269 0.0315,0.30386 0.02915,-0.12241 0.02061,-0.24499 0.03604,-0.36747 0.02076,0.13559 0.0051,0.27143 0.03604,0.40696 0.02954,-0.0361 0.01528,-0.14309 0.03513,-0.1357 0.0194,0.0683 -0.007,0.16887 0.05042,0.21827 0.01262,0.0128 0.05796,0.0311 0.08105,0 0.01936,0.0199 0.0489,10e-4 0.07431,-0.0356 0.03743,-0.12744 0.02055,-0.25522 0.04277,-0.38276 0.0193,0.11124 1.94e-4,0.22277 0.03606,0.33386 0.02443,-0.0642 0.01275,-0.12869 0.03154,-0.19292 0.02557,0.0816 0.01376,0.20172 0.06309,0.26024 0.0251,-0.0539 0.03407,-0.0214 0.04958,0.0303 0.02736,0.007 0.02983,-0.0146 0.07033,0.0131 -0.02076,-0.0121 0.06876,0.008 0.06933,-0.0125 0.01858,0.0131 0.01444,3.4e-4 0.04052,0.0115 m -5.139102,-0.21142 c 0.01,-0.11645 0.0066,-0.23299 0.0225,-0.34941 0.01315,0.12346 0.0019,0.24725 0.02705,0.37051 0.01594,-0.0616 0.0088,-0.12336 0.02253,-0.185 0.01909,0.11024 0.004,0.22073 0.04056,0.33086 0.02311,-2.4e-4 0.04502,0.038 0.06304,0.0207 0.01275,0.0285 0.06368,-0.004 0.08107,0.0151 0.01964,-0.004 0.05503,-0.0125 0.08104,-0.0477 0.03618,-0.0351 0.03667,-0.058 0.04957,-0.10766 0.0358,-0.14921 0.01881,-0.29863 0.0405,-0.44789 0.0121,0.13809 0.0015,0.27629 0.02703,0.4143 0.02055,-0.0717 0.0018,-0.14379 0.02703,-0.21537 0.02204,0.10963 -0.01879,0.23987 0.05407,0.33738 0.0229,-0.0259 0.01727,0.0743 0.06309,0.0561 0.03062,0.0123 0.03367,0.0221 0.07659,0.01 0.01694,-0.0334 0.02458,-0.0122 0.0676,-0.0116 0.02613,-0.0123 0.06419,0.0271 0.07654,0.01 0.05812,0.0154 0.04113,-0.0131 0.06107,-0.0602 0.02208,-0.1074 0.01343,0.0771 0.04694,0.0503 0.01935,-0.0891 0.03598,0.043 0.05261,0.0228 0.03502,-0.0351 0.03263,-0.0135 0.06448,3.4e-4 7.41e-4,-0.0434 0.04964,0.0131 0.07657,-0.007 0.03771,0.003 0.01866,0.0167 0.07653,0.001 0.01618,10e-4 0.08626,0.007 0.07522,-0.002 0.03423,-0.004 0.07114,-0.0116 0.06765,-0.013 0.02611,0.0136 0.0559,-0.0695 0.05204,-0.10963 0.0104,-0.0791 0.0066,-0.15834 0.0213,-0.23743 0.01779,0.0858 -0.002,0.18953 0.0315,0.26419 0.01656,-0.0288 0.0121,-0.15439 0.02675,-0.118 0.0209,0.0638 -0.01594,0.15431 0.05437,0.2024 0.03163,0.0487 0.02723,-0.002 0.07202,0.0118 0.03627,0.009 0.01539,-0.0197 0.06315,-0.008 0.03153,0.0331 0.04569,-0.0144 0.07661,0.0167 0.03751,-0.006 0.02942,-0.0372 0.07654,-0.0312 0.06864,-0.0729 0.03436,-0.16911 0.05856,-0.25091 0.0236,0.069 -0.0066,0.13873 0.03604,0.20743 0.01359,-0.037 0.02038,-0.15248 0.03115,-0.0571 0.004,0.0379 0.004,0.10994 0.04991,0.12472 0.0052,-0.008 0.05002,0.003 0.06304,0.0136 0.03004,0.0131 0.04366,-0.0323 0.08095,-0.0272 0.04749,0.0318 0.06241,-0.0502 0.06309,-0.0704 0.0086,-0.0895 0.02379,-0.061 0.03153,0.0108 0.01667,0.0834 0.04608,-0.0819 0.05679,0.0159 0.01542,-0.0416 0.02864,-0.0692 0.03681,0.0152 0.01601,0.0693 0.05523,-0.0635 0.05958,0.0262 0.01983,0.0373 0.03939,0.007 0.06255,0.0203 0.01887,-0.0213 0.02838,-0.12766 0.04106,-0.0498 0.0061,0.1 0.05809,-0.0418 0.06304,0.0358 0.01316,0.0122 0.0044,0.0174 0.018,0.0244 m -5.143398,-0.0232 c 0.01501,-0.0231 0.02881,0.004 0.06759,-0.0269 0.03871,-0.0737 0.02238,-0.14822 0.04056,-0.22224 0.0138,0.0581 0.0019,0.11644 0.0225,0.1744 0.01921,-0.0879 0.02848,-0.0636 0.03457,0.0122 -7.84e-4,0.0568 0.0235,0.0565 0.06451,0.0559 0.01018,0.0218 0.04934,-0.009 0.0811,0.0245 0.02874,-0.0174 0.03471,-0.009 0.08106,-0.0155 0.04057,0.0107 0.101034,-0.002 0.07654,-10e-4 0.02577,-0.037 0.04774,-0.0408 0.06759,-0.0674 0.04946,-0.0226 0.03113,-0.043 0.04867,-0.093 0.02173,-0.24316 0.01833,-0.48639 0.03241,-0.72958 0.01642,0.18741 6.39e-4,0.39718 0.02703,0.57096 0.0077,-0.0917 0.0088,-0.18338 0.018,-0.27506 0.04053,0.18833 -0.04039,0.40061 0.08105,0.57259 0.0401,0.008 0.01378,0.0215 0.06312,0.001 0.0269,-0.0861 0.02652,-0.0143 0.06308,-0.0158 0.02665,-0.002 0.04192,0.0462 0.07208,0.0387 0.0069,-0.0121 0.0639,-0.001 0.0811,-0.0157 0.03983,-0.0253 0.04316,-0.007 0.06759,-0.055 0.03227,-0.15719 0.01641,-0.32177 0.04052,-0.47442 0.0069,0.12403 0.0069,0.24807 0.01801,0.3721 0.0229,-0.0646 0.01029,-0.12955 0.02703,-0.19419 0.01555,0.10216 -0.0036,0.20622 0.04508,0.30709 0.02265,7e-5 0.04724,0.0411 0.06752,0.0178 0.02414,-0.0759 0.01591,-0.15192 0.03154,-0.2278 0.01584,0.0536 -0.0019,0.12954 0.02703,0.17092 0.0086,-0.0584 0.02606,-0.12637 0.02966,-0.0295 0.01185,0.0377 -0.0092,0.0831 0.05143,0.1039 0.02135,0.0333 0.05343,0.0145 0.0676,-10e-4 0.02768,-0.007 0.03807,-0.0205 0.06755,-0.0541 0.02972,-0.0419 0.03449,-0.0771 0.04231,-0.1373 0.02446,-0.24521 0.01706,-0.4905 0.03434,-0.73574 0.01237,0.20595 0.0059,0.41194 0.0225,0.61788 0.0228,-0.10268 0.0075,-0.20654 0.02706,-0.30869 0.02522,0.19847 -0.02159,0.39794 0.05856,0.59578 0.02169,0.0209 0.06405,0.039 0.08105,0.0259 0.01018,0.033 0.02864,-0.0349 0.0766,-0.0161 0.02644,-0.0266 0.05907,-0.009 0.06304,-0.0411 0.04434,-0.19143 0.02093,-0.38321 0.04504,-0.57474 0.01403,0.14942 8.47e-4,0.29899 0.02703,0.44834 0.01289,-0.079 0.008,-0.15801 0.02252,-0.23695 0.01988,0.13197 -0.0062,0.27274 0.04505,0.39874 0.01416,-0.012 0.02491,0.0437 0.0766,0.0338 0.02689,-0.0259 0.02157,-0.0295 0.05853,-0.0425 0.0433,-0.0383 0.028,-0.11617 0.03892,-0.1695 0.0085,-0.10515 0.0045,-0.21036 0.01964,-0.31548 0.01375,0.11799 3.04e-4,0.26032 0.02702,0.36377 0.01519,-0.0604 0.0088,-0.12096 0.02249,-0.18139 0.02755,0.10224 -0.0173,0.22695 0.05412,0.31641 0.03817,0.0123 0.06108,0.0261 0.0853,-0.004 0.01711,-0.006 0.06061,-0.006 0.07005,-0.0501 0.0087,-0.0218 0.0086,-0.0437 0.01097,-0.0656 m -5.143343,0.14896 c 0.002,-0.008 0.07297,-0.002 0.06759,-0.004 0.0041,0.0171 0.04868,0.0178 0.08108,0.0107 0.0089,0.0176 0.0397,-10e-4 0.07661,0.0142 0.0066,-0.0243 0.05305,0.004 0.06581,-0.006 0.0049,-0.012 0.04455,0.009 0.07374,-0.0271 0.02782,0.0175 0.04791,-0.0404 0.04741,-0.0825 0.01018,-0.0659 0.008,-0.13189 0.02014,-0.19778 0.0093,0.0653 0.004,0.13067 0.018,0.19589 0.01237,-0.0908 0.02609,-0.0927 0.02879,3e-5 -0.01085,0.0305 0.01684,0.0973 0.0433,0.093 0.0664,-0.008 0.04043,-0.0177 0.07204,-0.0326 0.03737,-0.0303 0.03209,-0.10199 0.03816,-0.15141 0.01371,-0.17504 0.01029,-0.35012 0.02489,-0.52517 0.0088,0.14291 0.0051,0.28583 0.018,0.42872 0.01197,-0.065 0.01,-0.13004 0.018,-0.19505 0.02016,0.14808 -0.0018,0.29637 0.04056,0.44434 0.02813,-0.0137 0.07137,0.0423 0.07205,0.0283 0.05667,0.0237 0.06558,-0.0306 0.07207,-0.0589 0.01435,-0.0888 0.01783,-0.0298 0.03154,0.028 0.03707,-0.0575 0.08595,0.0497 0.05336,0.0444 0.0083,0.004 0.04808,0.004 0.06827,-0.028 0.02965,0.0308 0.07238,0.0328 0.06303,0.0281 0.01844,0.007 0.117907,0.008 0.08105,0.007 0.0316,-0.0375 0.07546,-0.0346 0.08112,-0.0176 0.0049,-0.0168 0.07311,0.0266 0.05404,0.0295 0.02493,-0.0217 0.07964,-0.0206 0.06591,-0.0171 0.03193,-0.0142 0.05591,-0.0254 0.05977,-0.0812 0.01483,-0.0853 0.01063,-0.17079 0.02744,-0.25611 0.007,0.0734 0.0059,0.14687 0.018,0.22028 0.01018,-0.0548 0.02444,-0.12665 0.0288,-0.0275 0.01276,0.0434 -0.01185,0.0976 0.03877,0.13395 0.03494,-0.0572 0.03035,-0.10435 0.04952,-0.0181 0.03639,-0.0245 0.0133,0.008 0.06757,0.0337 0.03182,0.004 0.08863,-0.0237 0.07205,-0.0159 0.02818,0.0403 0.04728,-0.0349 0.0811,0.003 0.01692,-0.009 0.05377,0.0243 0.07205,0.0136 0.03921,-0.001 0.07977,-0.004 0.07639,0.005 0.03115,-0.008 0.116452,-0.002 0.07658,-0.004 0.0302,-0.0149 0.04237,-0.0191 0.07205,-0.0645 0.01732,-0.0765 0.0155,-0.15308 0.02701,-0.2296 0.01967,0.0666 -0.0027,0.13374 0.02702,0.2001 0.0041,-0.0648 0.02267,-0.1239 0.02533,-0.0227 0.0024,0.0386 0.0077,0.10186 0.05126,0.11291 0.01773,-0.0414 0.04467,0.0288 0.06263,-0.0131 0.01377,0.008 0.01872,-0.1327 0.03627,-0.0469 0.01558,0.0831 0.03508,-0.0497 0.0487,0.0427 0.01616,0.0187 0.113691,0.0155 0.06862,0.0181 0.03926,-0.035 0.06237,0.004 0.07152,-0.0122 0.01108,0.0341 -7.84e-4,-0.0241 0.03211,0.004 m -5.14336,-0.0265 c 0.0079,0.004 0.07402,-0.0237 0.06249,-0.0665 0.0071,-0.0234 0.0093,-0.15755 0.0276,-0.0915 0.0067,0.0534 0.03599,0.0432 0.04341,0.115 0.02159,0.0396 0.0571,-0.009 0.06846,-0.0366 0.105681,-0.38975 0.04305,-0.78453 0.07179,-1.17631 8.48e-4,-0.0674 0.0035,-0.13477 0.0057,-0.20216 0.01136,0.23095 0.0033,0.46192 0.018,0.69286 0.0058,-0.0756 0.002,-0.15124 0.01348,-0.22681 0.0263,0.28764 -0.02598,0.58087 0.05405,0.8651 0.03831,-0.0168 0.03364,-0.0899 0.04056,-0.13777 0.01519,-0.23813 0.01185,-0.47628 0.02703,-0.71441 0.01063,0.15892 0.0011,0.31792 0.018,0.47679 0.0037,-0.029 0.0037,-0.17577 0.01423,-0.12462 0.02341,0.19567 -0.0262,0.397 0.05783,0.58876 0.0045,0.006 0.07632,0.019 0.07205,-0.0252 0.0201,-0.0331 0.04185,-0.0259 0.0612,-0.0766 0.04239,-0.3317 0.02153,-0.66363 0.04238,-0.99542 0.01063,0.18539 0.0021,0.37085 0.018,0.55619 0.0059,-0.0661 0.0035,-0.13229 0.01352,-0.19841 0.02874,0.23943 -0.03048,0.49731 0.06304,0.72586 0.005,0.007 0.04165,0.0131 0.06752,0.0389 0.0628,0.005 0.03263,0.0156 0.07204,0.006 0.04192,0.013 0.05719,-0.0213 0.08112,0.002 0.0066,-0.0279 0.04591,-0.006 0.06602,-0.0606 0.03797,-0.18721 0.01782,-0.3747 0.0421,-0.56196 0.0047,0.11627 0.0051,0.23257 0.01348,0.34884 0.0087,-0.038 0.01462,-0.19421 0.0207,-0.0856 0.01968,0.1218 -0.02327,0.24446 0.05142,0.36566 0.0021,-0.006 0.07018,0.01 0.06753,-0.006 0.03877,-0.0226 0.02139,-0.16182 0.044,-0.10338 -10e-4,0.0629 0.04231,0.0297 0.04461,0.0952 0.03158,0.0497 0.04456,0.0236 0.05998,0.0366 0.04213,-0.0119 0.03963,0.0135 0.07646,-0.006 0.01149,0.008 0.103295,-0.0368 0.08105,-0.0323 0.0445,-0.017 0.03872,-0.0943 0.04505,-0.13953 0.0067,-0.10556 0.0188,-0.0397 0.02041,0.0279 0.0025,0.11703 0.02957,-0.0758 0.0302,0.0322 -0.0019,0.0434 0.01497,0.11576 0.04845,0.11429 0.04634,-0.0356 0.03335,-0.0376 0.0676,-0.0275 0.02911,0.0181 0.02587,0.0439 0.07656,0.024 0.02436,10e-4 0.0352,-0.002 0.07209,-0.0108 0.0179,0.0125 0.06696,0.028 0.06752,0.0135 0.01992,0.0255 0.0058,-3.4e-4 0.06304,0.0122 0.01173,-0.008 0.05359,-0.0187 0.0811,10e-4 0.01517,-0.0113 0.117577,0.002 0.07205,0.002 0.01086,-0.008 0.03605,0.002 0.08107,-0.003 0.05225,-0.0154 0.04364,0.009 0.08104,-0.006 0.01085,-0.0457 0.06849,0.0242 0.07205,-0.0106 0.01893,0.035 0.08719,0.0188 0.07657,0.0178 0.03682,-0.0739 0.01896,0.0322 0.03603,-0.0135 m -5.143375,-0.007 c 0.03914,-0.0306 0.05838,0.006 0.08559,-0.0103 0.02689,0.004 0.06267,0.008 0.07205,-0.007 0.0067,0.0136 0.05684,-4.3e-4 0.06759,0.0163 0.06172,-0.026 0.03641,0.002 0.07205,-0.002 0.027,-0.0188 0.04319,0.0108 0.08108,-0.008 0.05239,-0.002 0.04468,4.3e-4 0.08105,-0.009 0.04007,-0.0317 0.02419,-0.15264 0.04505,-0.056 0.0299,-0.001 0.0061,0.0732 0.05856,0.0579 0.05544,-0.01 0.02956,-0.0124 0.06753,-0.0551 0.05014,-0.22365 0.03137,-0.44765 0.04954,-0.67144 0.01006,0.0994 0.0067,0.19875 0.01351,0.29813 0.01471,-0.11374 0.01589,0.0108 0.01765,0.0597 0.01589,0.12165 -0.02126,0.24989 0.05889,0.36744 0.02739,-0.002 0.05537,0.013 0.08106,0.001 0.04355,-0.0111 0.05588,-0.0168 0.08111,0.008 0.02967,-0.002 0.0696,-0.0321 0.07623,-0.0185 0.0019,0.0386 0.09853,0.0333 0.07238,0.0254 0.03645,-10e-4 0.113849,-0.009 0.0721,-0.004 0.0238,0.0232 0.08459,-0.0117 0.07575,10e-4 0.03234,0.0192 0.06062,-0.0231 0.07285,-0.0108 0.03166,-0.0277 0.117967,4.3e-4 0.07659,0.004 0.03935,0.0139 0.06573,-0.0326 0.06461,-0.067 0.0021,-0.0819 0.03821,0.0256 0.04551,-0.0644 0.01434,-0.0576 0.0069,-0.11538 0.02051,-0.17296 0.01029,0.0303 0.0019,0.17362 0.0218,0.12207 0.01617,0.0132 0.0088,0.10523 0.02224,0.14954 0.01693,0.0379 0.08386,0.0309 0.06856,0.036 0.023,0.004 0.0635,0.002 0.08106,-0.007 0.02982,0.007 0.07049,-0.0188 0.07653,-0.0633 0.01632,-0.1326 0.01679,-0.26525 0.02703,-0.39789 0.01536,0.0716 0.0034,0.14337 0.018,0.21498 0.01006,-0.10533 0.01839,0.002 0.01861,0.0517 0.0077,0.0648 -0.0042,0.14232 0.03994,0.19685 0.0015,-0.006 0.08197,0.0184 0.07497,0.006 0.01161,0.0116 0.03947,10e-4 0.07371,0.0116 0.01775,-0.0146 0.0396,-0.004 0.0811,-0.0191 0.01945,-0.028 0.03737,-0.0119 0.07204,0.009 0.02246,0.006 0.108395,0.0211 0.08103,0.0118 0.01501,-0.0211 0.08407,-0.004 0.07209,-0.008 0.0035,-0.008 0.107966,0.002 0.07204,0.002 0.02307,0.005 0.04365,-0.0257 0.07653,-0.0131 0.0059,0.0112 0.06153,-0.009 0.07102,0.007 0.0033,0.0134 0.0019,-0.0217 0.01018,-0.006 m -5.138956,-0.0465 c 0.03074,-0.0467 0.04104,-4.3e-4 0.06757,0.0143 0.01835,-0.0222 0.03147,0.0214 0.06304,-0.008 0.01538,0.0224 0.06076,-0.004 0.08106,0.0129 0.01894,-0.0121 0.120852,-0.002 0.08559,-10e-4 0.04447,0.006 0.04728,-0.0167 0.0763,0.009 0.03712,-0.0168 0.03676,0.008 0.05878,-0.0153 0.03094,0.0252 0.04812,-0.0147 0.06756,0.0112 0.0085,0.001 0.106077,-0.01 0.08105,-0.008 0.02981,0.012 0.05377,0.0102 0.07204,-0.0299 0.0059,-0.0791 0.02649,-0.017 0.04056,0.0251 0.0192,0.008 0.04096,0.0168 0.08104,0.0107 0.01018,0.008 0.104958,-0.003 0.07654,2.2e-4 0.03632,0.006 0.06044,0.005 0.07658,0.004 0.0066,-0.005 0.08486,0.0115 0.08559,10e-4 0.03693,0.007 0.115792,0.0111 0.06752,0.004 0.03692,-0.007 0.04675,0.0138 0.06756,-0.004 0.04794,-0.004 0.04117,0.0223 0.07205,-0.021 0.01846,0.0358 0.07644,0.0278 0.06304,0.0275 0.04422,-0.0125 0.05119,0.009 0.0856,-0.006 0.0087,-0.007 0.03986,0.0171 0.05404,-0.003 0.03422,0.0206 0.07197,-0.002 0.07956,0.0162 0.0055,-0.0139 0.06565,-0.0107 0.06909,0.004 0.01694,-0.0142 0.05421,-0.0165 0.07186,4.3e-4 0.0204,-0.0298 0.02535,0.006 0.06775,-0.0259 0.02872,-0.0548 0.0198,-0.12905 0.03604,-0.1911 0.0051,0.0659 0.02428,0.0805 0.02825,0.14062 -0.0032,0.076 0.03755,0.0462 0.05282,0.056 0.03476,0.0137 0.0498,0.0168 0.08559,0.01 0.02145,0.0175 0.09713,-0.008 0.07597,0.001 0.01481,0.0203 0.04272,-0.009 0.07262,0.01 0.02649,-0.0147 0.0465,10e-4 0.06084,-0.0519 0.01482,-0.054 0.01052,-0.1085 0.02474,-0.16223 0.0018,0.0799 0.02033,0.0735 0.02701,0.13185 -0.0018,0.0383 0.111674,0.0838 0.06304,0.0845 0.02034,-0.01 0.120399,-0.0107 0.08559,-0.007 0.03218,-0.001 0.02961,0.0112 0.08105,0.004 -0.02769,-0.006 0.207117,0.0309 0.08104,0.008 0.0093,-0.0122 0.0782,-0.0107 0.07211,0.004 l 0.0044,-0.005 0.0045,-10e-4 m -5.143292,-0.0452 c 0.02899,0.0117 0.06578,-0.009 0.07654,0.004 0.03601,-0.005 0.03456,0.008 0.07657,-0.004 0.02005,0.009 0.11224,-0.006 0.06756,-0.003 0.0431,-0.008 0.05684,-0.0329 0.06304,-0.0756 0.0121,-0.0256 0.01349,-0.16857 0.02703,-0.10577 0.01698,0.0561 -0.0086,0.1158 0.0315,0.16994 0.03854,0.0175 0.03289,0.003 0.07659,0.0148 0.01389,-0.004 0.0499,10e-4 0.07204,-0.008 0.01224,0.0174 0.03504,-0.006 0.06756,0.001 0.06311,-0.001 0.02629,0.0135 0.07204,-0.008 0.01921,0.028 0.01185,-0.002 0.06756,0.0184 0.03221,-0.0251 0.0066,-0.0151 0.06752,-0.0105 0.04106,0.01 0.100582,0.002 0.08107,-10e-4 0.0805,-0.004 0.04469,0.003 0.0856,-0.002 0.01364,-0.0111 0.06309,0.008 0.07657,-0.002 0.03914,0.004 0.05595,0.0131 0.08106,-0.006 0.0198,0.0168 0.03263,0.009 0.06758,0.006 0.05576,-10e-4 0.02494,-0.006 0.07204,0.002 0.04315,-0.008 0.02254,0.0104 0.07205,-0.004 0.04334,0.011 0.09287,-0.009 0.07204,-0.012 0.03072,0.0265 0.0347,0.0102 0.08559,0.0184 0.05589,0.004 0.04993,-0.0108 0.07204,0.006 0.03898,-0.0115 0.06838,0.002 0.0856,-0.0109 0.01018,0.0185 0.05164,-0.004 0.06752,0.006 0.03168,0.008 0.04191,-0.006 0.07204,0.007 0.0064,-0.004 0.06634,-0.0133 0.08559,0.007 0.02506,-0.0171 0.09312,-4e-5 0.08559,-0.006 0.0258,-0.008 0.03711,-0.008 0.08553,10e-4 0.0263,-0.0102 0.10438,-0.01 0.07657,-0.002 0.01018,0.001 0.0741,-0.0102 0.07204,0.003 0.03508,-0.005 0.04569,0.002 0.08087,-0.008 0.0074,0.002 0.08188,0.024 0.07184,0.004 0.02709,0.005 0.114522,0.01 0.07697,0.004 0.04816,-0.0119 0.06236,0.006 0.07659,-0.009 0.03262,0.0145 0.03383,-0.1398 0.04742,-0.092 0.02455,0.0311 -0.01085,0.091 0.05164,0.0954 l 0.0045,-0.003"
       id="polyline20-4"
       inkscape:connector-curvature="0" />
    <g
       id="g1044"
       transform="matrix(0,0.00529167,-0.00529167,0,79.375,291.70834)"
       style="stroke-width:50.00001526">
      <path
         inkscape:connector-curvature="0"
         d=""
         cx="-500"
         cy="-66.987305"
         r="250"
         id="circle959-8"
         style="fill:#7ec3eb;fill-opacity:1;stroke:none;stroke-width:50.00001526;stroke-opacity:1" />
      <g
         transform="matrix(1.1533688,0,0,1.1533688,-76.684226,-76.684402)"
         style="fill:#797972;fill-opacity:1;stroke-width:43.3512764"
         id="g2125">
        <path
           inkscape:connector-curvature="0"
           style="fill:#797972;fill-opacity:1;stroke:none;stroke-width:43.3512764;stroke-opacity:1"
           d="m 373.14897,86.349838 a 433.0127,433.0127 0 0 0 -65.60351,26.648442 250,250 0 0 1 31.27734,41.46289 125,125 0 0 0 34.32617,-68.111332 z"
           id="circle973-7" />
        <path
           inkscape:connector-curvature="0"
           style="fill:#797972;fill-opacity:1;stroke:none;stroke-width:43.3512764;stroke-opacity:1"
           d="m 626.23881,85.945538 a 125,125 0 0 0 34.60547,68.712892 250,250 0 0 1 31.60938,-41.90039 433.0127,433.0127 0 0 0 -66.21485,-26.812502 z"
           id="circle933-7" />
        <path
           inkscape:connector-curvature="0"
           style="fill:#797972;fill-opacity:1;stroke:none;stroke-width:43.3512764;stroke-opacity:1"
           d="m 373.14897,913.65018 a 433.0127,433.0127 0 0 1 -65.60351,-26.64844 250,250 0 0 0 31.27734,-41.46289 125,125 0 0 1 34.32617,68.11133 z"
           id="circle973-7-5" />
        <path
           inkscape:connector-curvature="0"
           style="fill:#797972;fill-opacity:1;stroke:none;stroke-width:43.3512764;stroke-opacity:1"
           d="m 626.23881,914.05448 a 125,125 0 0 1 34.60547,-68.71289 250,250 0 0 0 31.60938,41.90039 433.0127,433.0127 0 0 1 -66.21485,26.8125 z"
           id="circle933-7-9" />
        <path
           inkscape:connector-curvature="0"
           style="fill:#797972;fill-opacity:1;stroke:none;stroke-width:43.3512764;stroke-opacity:1"
           d="m 78.238967,403.09115 a 433.0127,433.0127 0 0 0 -9.723529,70.13852 250,250 0 0 1 51.546582,-6.35552 125,125 0 0 0 -41.823053,-63.783 z"
           id="circle973-7-9" />
        <path
           inkscape:connector-curvature="0"
           style="fill:#797972;fill-opacity:1;stroke:none;stroke-width:43.3512764;stroke-opacity:1"
           d="m 204.43375,183.70676 a 125,125 0 0 0 76.80985,4.38723 250,250 0 0 1 -20.48212,-48.32472 433.0127,433.0127 0 0 0 -56.32773,43.93749 z"
           id="circle933-7-7" />
        <path
           inkscape:connector-curvature="0"
           style="fill:#797972;fill-opacity:1;stroke:none;stroke-width:43.3512764;stroke-opacity:1"
           d="m 794.70208,816.74132 a 433.0127,433.0127 0 0 1 -55.87998,43.49008 250,250 0 0 0 -20.26925,-47.81841 125,125 0 0 1 76.14923,4.32833 z"
           id="circle973-7-5-7" />
        <path
           inkscape:connector-curvature="0"
           style="fill:#797972;fill-opacity:1;stroke:none;stroke-width:43.3512764;stroke-opacity:1"
           d="m 921.59713,597.76123 a 125,125 0 0 1 -42.20437,-64.32566 250,250 0 0 0 52.09149,-6.42433 433.0127,433.0127 0 0 1 -9.88712,70.74999 z"
           id="circle933-7-9-6" />
        <path
           inkscape:connector-curvature="0"
           style="fill:#797972;fill-opacity:1;stroke:none;stroke-width:43.3512764;stroke-opacity:1"
           d="m 794.70209,183.25869 a 433.0127,433.0127 0 0 0 -55.87998,-43.49009 250,250 0 0 1 -20.26925,47.81842 125,125 0 0 0 76.14923,-4.32833 z"
           id="circle973-7-9-4" />
        <path
           inkscape:connector-curvature="0"
           style="fill:#797972;fill-opacity:1;stroke:none;stroke-width:43.3512764;stroke-opacity:1"
           d="m 921.59714,402.23877 a 125,125 0 0 0 -42.20437,64.32566 250,250 0 0 1 52.09149,6.42433 433.0127,433.0127 0 0 0 -9.88712,-70.74999 z"
           id="circle933-7-7-8" />
        <path
           inkscape:connector-curvature="0"
           style="fill:#797972;fill-opacity:1;stroke:none;stroke-width:43.3512764;stroke-opacity:1"
           d="m 78.238977,596.90886 a 433.0127,433.0127 0 0 1 -9.723529,-70.13853 250,250 0 0 0 51.546582,6.35553 125,125 0 0 1 -41.823053,63.783 z"
           id="circle973-7-5-7-1" />
        <path
           inkscape:connector-curvature="0"
           style="fill:#797972;fill-opacity:1;stroke:none;stroke-width:43.3512764;stroke-opacity:1"
           d="m 204.43376,816.29324 a 125,125 0 0 1 76.80985,-4.38723 250,250 0 0 0 -20.48212,48.32472 433.0127,433.0127 0 0 1 -56.32773,-43.93749 z"
           id="circle933-7-9-6-2" />
      </g>
      <g
         transform="matrix(1.1533688,0,0,1.1533688,-76.684226,-76.684402)"
         style="fill:#7ec3eb;fill-opacity:1;stroke-width:43.3512764"
         id="g2111">
        <path
           style="fill:#7ec3eb;fill-opacity:1;stroke:none;stroke-width:43.3512764;stroke-opacity:1"
           d="m 499.62384,66.487303 a 250,250 0 0 0 -91.4141,91.199217 250,250 0 0 0 -33.1816,124.92774 250,250 0 0 0 0.2344,0.11718 250,250 0 0 1 23.3125,-11.82617 103.55339,103.55339 0 0 1 -2.4121,-21.71289 103.55339,103.55339 0 0 1 103.5527,-103.55273 103.55339,103.55339 0 0 1 103.5527,103.55273 103.55339,103.55339 0 0 1 -2.334,21.60352 250,250 0 0 1 23.2461,11.82812 250,250 0 0 0 0.3164,-0.16992 250,250 0 0 0 -33.2754,-124.76758 250,250 0 0 0 -91.5976,-91.199217 z"
           id="circle945-8"
           inkscape:connector-curvature="0" />
        <path
           style="fill:#7ec3eb;fill-opacity:1;stroke:none;stroke-width:43.3512764;stroke-opacity:1"
           d="m 499.62384,933.5127 a 250,250 0 0 1 -91.4141,-91.19922 250,250 0 0 1 -33.1816,-124.92773 250,250 0 0 1 0.2344,-0.11718 250,250 0 0 0 23.3125,11.82617 103.55339,103.55339 0 0 0 -2.4121,21.71289 103.55339,103.55339 0 0 0 103.5527,103.55272 103.55339,103.55339 0 0 0 103.5527,-103.55272 103.55339,103.55339 0 0 0 -2.334,-21.60352 250,250 0 0 0 23.2461,-11.82812 250,250 0 0 1 0.3164,0.16992 250,250 0 0 1 -33.2754,124.76757 250,250 0 0 1 -91.5976,91.19922 z"
           id="circle945-8-9"
           inkscape:connector-curvature="0" />
        <path
           style="fill:#7ec3eb;fill-opacity:1;stroke:none;stroke-width:43.3512764;stroke-opacity:1"
           d="m 124.27494,283.62943 a 250,250 0 0 0 33.27379,124.76654 250,250 0 0 0 91.5998,91.19998 250,250 0 0 0 0.21868,-0.14441 250,250 0 0 1 1.41448,-26.1023 103.55339,103.55339 0 0 1 -20.00996,-8.76751 103.55339,103.55339 0 0 1 -37.90295,-141.45563 103.55339,103.55339 0 0 1 141.45565,-37.90291 103.55339,103.55339 0 0 1 17.5422,12.82307 250,250 0 0 1 21.8665,-14.21766 250,250 0 0 0 0.011,-0.35897 250,250 0 0 0 -124.68959,-33.56644 250,250 0 0 0 -124.77964,33.72624 z"
           id="circle945-8-1"
           inkscape:connector-curvature="0" />
        <path
           style="fill:#7ec3eb;fill-opacity:1;stroke:none;stroke-width:43.3512764;stroke-opacity:1"
           d="m 875.14096,717.14212 a 250,250 0 0 1 -124.68789,33.56733 250,250 0 0 1 -124.78139,-33.72776 250,250 0 0 1 0.0157,-0.26159 250,250 0 0 0 21.89801,-14.27613 103.55339,103.55339 0 0 0 17.59787,12.94539 103.55339,103.55339 0 0 0 141.45563,-37.90291 103.55339,103.55339 0 0 0 -37.90293,-141.45563 103.55339,103.55339 0 0 0 -19.8762,-8.78046 250,250 0 0 0 1.3796,-26.04577 250,250 0 0 1 0.30535,-0.18905 250,250 0 0 1 91.41419,91.20113 250,250 0 0 1 33.18204,124.92545 z"
           id="circle945-8-9-7"
           inkscape:connector-curvature="0" />
        <path
           style="fill:#7ec3eb;fill-opacity:1;stroke:none;stroke-width:43.3512764;stroke-opacity:1"
           d="m 875.14098,282.85787 a 250,250 0 0 0 -124.68788,-33.56732 250,250 0 0 0 -124.7814,33.72776 250,250 0 0 0 0.0157,0.26158 250,250 0 0 1 21.89801,14.27614 103.55339,103.55339 0 0 1 17.59787,-12.94539 103.55339,103.55339 0 0 1 141.45564,37.9029 103.55339,103.55339 0 0 1 -37.90294,141.45564 103.55339,103.55339 0 0 1 -19.8762,8.78045 250,250 0 0 1 1.3796,26.04578 250,250 0 0 0 0.30535,0.18905 250,250 0 0 0 91.4142,-91.20113 250,250 0 0 0 33.18203,-124.92546 z"
           id="circle945-8-1-6"
           inkscape:connector-curvature="0" />
        <path
           style="fill:#7ec3eb;fill-opacity:1;stroke:none;stroke-width:43.3512764;stroke-opacity:1"
           d="m 124.27496,716.37057 a 250,250 0 0 1 33.2738,-124.76654 250,250 0 0 1 91.59978,-91.19998 250,250 0 0 1 0.21868,0.14441 250,250 0 0 0 1.41449,26.1023 103.55339,103.55339 0 0 0 -20.00996,8.76751 103.55339,103.55339 0 0 0 -37.90294,141.45562 103.55339,103.55339 0 0 0 141.45564,37.90291 103.55339,103.55339 0 0 0 17.54219,-12.82306 250,250 0 0 0 21.86651,14.21765 250,250 0 0 1 0.011,0.35897 250,250 0 0 1 -124.68958,33.56645 250,250 0 0 1 -124.77965,-33.72624 z"
           id="circle945-8-9-7-9"
           inkscape:connector-curvature="0" />
      </g>
      <g
         transform="matrix(1.1533688,0,0,1.1533688,-76.684226,-76.684402)"
         style="fill:#7ec3eb;fill-opacity:1;stroke-width:43.3512764"
         id="g2095">
        <path
           style="fill:#7ec3eb;fill-opacity:1;stroke:none;stroke-width:43.3512764;stroke-opacity:1"
           d="m 499.71149,249.5 a 250,250 0 0 0 -101.125,21.70508 103.55339,103.55339 0 0 0 10.3828,27.96093 250,250 0 0 0 90.7422,17.32227 250,250 0 0 0 90.6875,-17.03516 103.55339,103.55339 0 0 0 10.5391,-28.34961 A 250,250 0 0 0 499.71149,249.5 Z"
           id="circle951-4"
           inkscape:connector-curvature="0" />
        <path
           style="fill:#7ec3eb;fill-opacity:1;stroke:none;stroke-width:43.3512764;stroke-opacity:1"
           d="m 499.71149,750.5 a 250,250 0 0 1 -101.125,-21.70508 103.55339,103.55339 0 0 1 10.3828,-27.96093 250,250 0 0 1 90.7422,-17.32227 250,250 0 0 1 90.6875,17.03516 103.55339,103.55339 0 0 1 10.5391,28.34961 A 250,250 0 0 1 499.71149,750.5 Z"
           id="circle951-4-0"
           inkscape:connector-curvature="0" />
        <path
           style="fill:#7ec3eb;fill-opacity:1;stroke:none;stroke-width:43.3512764;stroke-opacity:1"
           d="m 282.81241,375.05987 a 250,250 0 0 0 -31.76535,98.42936 103.55339,103.55339 0 0 0 29.40628,4.98869 250,250 0 0 0 60.37262,-69.92391 250,250 0 0 0 30.59087,-87.05526 103.55339,103.55339 0 0 0 -19.28193,-23.30193 250,250 0 0 0 -69.32249,76.86305 z"
           id="circle951-4-1"
           inkscape:connector-curvature="0" />
        <path
           style="fill:#7ec3eb;fill-opacity:1;stroke:none;stroke-width:43.3512764;stroke-opacity:1"
           d="m 716.69114,625.55987 a 250,250 0 0 1 -69.35965,76.72428 103.55339,103.55339 0 0 1 -19.02348,-22.97224 250,250 0 0 1 30.36958,-87.24618 250,250 0 0 1 60.09663,-70.0201 103.55339,103.55339 0 0 1 29.82103,5.04768 250,250 0 0 1 -31.90411,98.46656 z"
           id="circle951-4-0-3"
           inkscape:connector-curvature="0" />
        <path
           style="fill:#7ec3eb;fill-opacity:1;stroke:none;stroke-width:43.3512764;stroke-opacity:1"
           d="m 716.69116,374.44013 a 250,250 0 0 0 -69.35965,-76.72428 103.55339,103.55339 0 0 0 -19.02347,22.97223 250,250 0 0 0 30.36957,87.24619 250,250 0 0 0 60.09663,70.02009 103.55339,103.55339 0 0 0 29.82104,-5.04767 250,250 0 0 0 -31.90412,-98.46656 z"
           id="circle951-4-1-3"
           inkscape:connector-curvature="0" />
        <path
           style="fill:#7ec3eb;fill-opacity:1;stroke:none;stroke-width:43.3512764;stroke-opacity:1"
           d="m 282.81244,624.94013 a 250,250 0 0 1 -31.76535,-98.42936 103.55339,103.55339 0 0 1 29.40627,-4.9887 250,250 0 0 1 60.37263,69.92392 250,250 0 0 1 30.59087,87.05525 103.55339,103.55339 0 0 1 -19.28193,23.30194 250,250 0 0 1 -69.32249,-76.86305 z"
           id="circle951-4-0-3-3"
           inkscape:connector-curvature="0" />
      </g>
      <g
         transform="matrix(1.1533688,0,0,1.1533688,-76.684226,-76.684402)"
         style="fill:#797972;fill-opacity:1;stroke-width:43.3512764"
         id="g2103">
        <path
           inkscape:connector-curvature="0"
           style="fill:#797972;fill-opacity:1;fill-rule:evenodd;stroke:none;stroke-width:43.3512764px;stroke-linecap:butt;stroke-linejoin:miter;stroke-opacity:1"
           d="m 426.58539,323.17759 -0.1563,0.15626 a 250,250 0 0 1 41.8418,55.7832 125,125 0 0 1 31.4922,-4.11719 125,125 0 0 1 31.2285,4.125 250,250 0 0 1 42.1036,-55.79297 l -0.1543,-0.1543 a 103.55339,103.55339 0 0 1 -73.1778,30.375 103.55339,103.55339 0 0 1 -73.1777,-30.375 z"
           id="path1022" />
        <path
           style="fill:#797972;fill-opacity:1;fill-rule:evenodd;stroke:none;stroke-width:43.3512764px;stroke-linecap:butt;stroke-linejoin:miter;stroke-opacity:1"
           d="m 426.58539,676.82238 -0.1563,-0.15626 a 250,250 0 0 0 41.8418,-55.7832 125,125 0 0 0 31.4922,4.11719 125,125 0 0 0 31.2285,-4.125 250,250 0 0 0 42.1036,55.79297 l -0.1543,0.1543 a 103.55339,103.55339 0 0 0 -73.1778,-30.375 103.55339,103.55339 0 0 0 -73.1777,30.375 z"
           id="path1022-1"
           inkscape:connector-curvature="0" />
        <path
           inkscape:connector-curvature="0"
           style="fill:#797972;fill-opacity:1;fill-rule:evenodd;stroke:none;stroke-width:43.3512764px;stroke-linecap:butt;stroke-linejoin:miter;stroke-opacity:1"
           d="m 310.05602,475.22772 0.0572,0.21349 a 250,250 0 0 1 69.23057,-8.34446 125,125 0 0 1 12.18051,-29.33164 125,125 0 0 1 19.1866,-24.98217 250,250 0 0 1 -27.26633,-64.35928 l -0.21078,0.0565 a 103.55339,103.55339 0 0 1 -10.28337,78.56134 103.55339,103.55339 0 0 1 -62.89438,48.18624 z"
           id="path1022-5" />
        <path
           style="fill:#797972;fill-opacity:1;fill-rule:evenodd;stroke:none;stroke-width:43.3512764px;stroke-linecap:butt;stroke-linejoin:miter;stroke-opacity:1"
           d="m 616.3214,652.05012 -0.21348,0.0572 a 250,250 0 0 0 -27.38877,-64.12766 125,125 0 0 0 19.31169,-25.21445 125,125 0 0 0 12.0419,-29.10718 250,250 0 0 0 69.36993,-8.5663 l 0.0565,0.21078 a 103.55339,103.55339 0 0 0 -62.89442,48.18633 103.55339,103.55339 0 0 0 -10.28333,78.56125 z"
           id="path1022-1-6"
           inkscape:connector-curvature="0" />
        <path
           inkscape:connector-curvature="0"
           style="fill:#797972;fill-opacity:1;fill-rule:evenodd;stroke:none;stroke-width:43.3512764px;stroke-linecap:butt;stroke-linejoin:miter;stroke-opacity:1"
           d="m 616.32145,347.94986 -0.21348,-0.0572 a 250,250 0 0 1 -27.38876,64.12766 125,125 0 0 1 19.31169,25.21445 125,125 0 0 1 12.04189,29.10718 250,250 0 0 1 69.36993,8.5663 l 0.0565,-0.21078 A 103.55339,103.55339 0 0 1 626.6048,426.51114 103.55339,103.55339 0 0 1 616.32147,347.94989 Z"
           id="path1022-5-9" />
        <path
           style="fill:#797972;fill-opacity:1;fill-rule:evenodd;stroke:none;stroke-width:43.3512764px;stroke-linecap:butt;stroke-linejoin:miter;stroke-opacity:1"
           d="m 310.05608,524.77225 0.0572,-0.21348 a 250,250 0 0 0 69.23057,8.34446 125,125 0 0 0 12.18051,29.33164 125,125 0 0 0 19.18661,24.98217 250,250 0 0 0 -27.26633,64.35927 l -0.21078,-0.0565 A 103.55339,103.55339 0 0 0 372.95045,572.9585 103.55339,103.55339 0 0 0 310.05608,524.77225 Z"
           id="path1022-1-6-9"
           inkscape:connector-curvature="0" />
      </g>
    </g>
  </g>
</svg>
